name C:/MyDriveSym/Projects/mobilecap/Data\Session20210830_0002\mocap\ForceDataProcessed\walkingTS2_forces.mot
datacolumns 19
datarows 17
range 0.34950000 0.35750000
endheader 
time	R_ground_force_vx	R_ground_force_vy	R_ground_force_vz	R_ground_force_px	R_ground_force_py	R_ground_force_pz	R_ground_torque_x	R_ground_torque_y	R_ground_torque_z	L_ground_force_vx	L_ground_force_vy	L_ground_force_vz	L_ground_force_px	L_ground_force_py	L_ground_force_pz	L_ground_torque_x	L_ground_torque_y	L_ground_torque_z	
          0.34950000	        -20.37640700	        583.71657700	        -14.83883000	          0.22705700	          0.00600000	         -0.14990500	          0.00000000	         -3.15116700	          0.00000000	          0.00000000	          0.00000000	          0.00000000	          0.67780900	          0.00000000	         -0.21749200	          0.00000000	          0.00000000	          0.00000000	
          0.35000000	        -20.15781800	        583.87514100	        -14.87953600	          0.22718000	          0.00600000	         -0.14989400	          0.00000000	         -3.16886500	          0.00000000	          0.00000000	          0.00000000	          0.00000000	          0.67780900	          0.00000000	         -0.21749200	          0.00000000	          0.00000000	          0.00000000	
          0.35050000	        -19.93887400	        584.03897100	        -14.92164500	          0.22730400	          0.00600000	         -0.14988400	          0.00000000	         -3.18657400	          0.00000000	          0.00000000	          0.00000000	          0.00000000	          0.67780900	          0.00000000	         -0.21749200	          0.00000000	          0.00000000	          0.00000000	
          0.35100000	        -19.71957100	        584.20807200	        -14.96515600	          0.22742700	          0.00600000	         -0.14987300	          0.00000000	         -3.20429300	          0.00000000	          0.00000000	          0.00000000	          0.00000000	          0.67780900	          0.00000000	         -0.21749200	          0.00000000	          0.00000000	          0.00000000	
          0.35150000	        -19.49990400	        584.38245100	        -15.01006900	          0.22755100	          0.00600000	         -0.14986200	          0.00000000	         -3.22202200	          0.00000000	          0.00000000	          0.00000000	          0.00000000	          0.67780900	          0.00000000	         -0.21749200	          0.00000000	          0.00000000	          0.00000000	
          0.35200000	        -19.27987000	        584.56211200	        -15.05638200	          0.22767400	          0.00600000	         -0.14985100	          0.00000000	         -3.23975900	          0.00000000	          0.00000000	          0.00000000	          0.00000000	          0.67780900	          0.00000000	         -0.21749200	          0.00000000	          0.00000000	          0.00000000	
          0.35250000	        -19.05946400	        584.74706300	        -15.10409600	          0.22779800	          0.00600000	         -0.14984100	          0.00000000	         -3.25750400	          0.00000000	          0.00000000	          0.00000000	          0.00000000	          0.67780900	          0.00000000	         -0.21749200	          0.00000000	          0.00000000	          0.00000000	
          0.35300000	        -18.83868500	        584.93730800	        -15.15320900	          0.22792100	          0.00600000	         -0.14983000	          0.00000000	         -3.27525600	          0.00000000	          0.00000000	          0.00000000	          0.00000000	          0.67780900	          0.00000000	         -0.21749200	          0.00000000	          0.00000000	          0.00000000	
          0.35350000	        -18.61752700	        585.13285300	        -15.20372000	          0.22804500	          0.00600000	         -0.14982000	          0.00000000	         -3.29301300	          0.00000000	          0.00000000	          0.00000000	          0.00000000	          0.67780900	          0.00000000	         -0.21749200	          0.00000000	          0.00000000	          0.00000000	
          0.35400000	        -18.39598800	        585.33370300	        -15.25562900	          0.22816800	          0.00600000	         -0.14980900	          0.00000000	         -3.31077500	          0.00000000	          0.00000000	          0.00000000	          0.00000000	          0.67780900	          0.00000000	         -0.21749200	          0.00000000	          0.00000000	          0.00000000	
          0.35450000	        -18.17406400	        585.53986600	        -15.30893300	          0.22829100	          0.00600000	         -0.14979900	          0.00000000	         -3.32854100	          0.00000000	          0.00000000	          0.00000000	          0.00000000	          0.67780900	          0.00000000	         -0.21749200	          0.00000000	          0.00000000	          0.00000000	
          0.35500000	        -17.95175300	        585.75134500	        -15.36363200	          0.22841400	          0.00600000	         -0.14978800	          0.00000000	         -3.34631000	          0.00000000	          0.00000000	          0.00000000	          0.00000000	          0.67780900	          0.00000000	         -0.21749200	          0.00000000	          0.00000000	          0.00000000	
          0.35550000	        -17.72905000	        585.96814700	        -15.41972500	          0.22853800	          0.00600000	         -0.14977800	          0.00000000	         -3.36408000	          0.00000000	          0.00000000	          0.00000000	          0.00000000	          0.67780900	          0.00000000	         -0.21749200	          0.00000000	          0.00000000	          0.00000000	
          0.35600000	        -17.50595400	        586.19027600	        -15.47721000	          0.22866100	          0.00600000	         -0.14976800	          0.00000000	         -3.38185100	          0.00000000	          0.00000000	          0.00000000	          0.00000000	          0.67780900	          0.00000000	         -0.21749200	          0.00000000	          0.00000000	          0.00000000	
          0.35650000	        -17.28246200	        586.41774000	        -15.53608600	          0.22878400	          0.00600000	         -0.14975700	          0.00000000	         -3.39962200	          0.00000000	          0.00000000	          0.00000000	          0.00000000	          0.67780900	          0.00000000	         -0.21749200	          0.00000000	          0.00000000	          0.00000000	
          0.35700000	        -17.05857000	        586.65054200	        -15.59635000	          0.22890700	          0.00600000	         -0.14974700	          0.00000000	         -3.41739200	          0.00000000	          0.00000000	          0.00000000	          0.00000000	          0.67780900	          0.00000000	         -0.21749200	          0.00000000	          0.00000000	          0.00000000	
          0.35750000	        -16.83427700	        586.88868800	        -15.65800200	          0.22903100	          0.00600000	         -0.14973700	          0.00000000	         -3.43516000	          0.00000000	          0.00000000	          0.00000000	          0.00000000	          0.67780900	          0.00000000	         -0.21749200	          0.00000000	          0.00000000	          0.00000000	
